<svg xmlns="http://www.w3.org/2000/svg" width="21" height="23" viewBox="0 0 21 23"><g><g opacity=".87"><g opacity=".87"><g opacity=".87"><path fill="#b1a7ce" d="M20.307 10.312a9.975 9.975 0 0 1 .175 4.077 10.004 10.004 0 0 1-1.996 4.608 9.57 9.57 0 0 1-1.817 1.824c-.448.336-.922.643-1.408.923a9.136 9.136 0 0 1-2.989 1.064c-.402.071-.808.12-1.212.179H9.775c-.417-.06-.835-.111-1.25-.182a9.698 9.698 0 0 1-2.702-.903 10.092 10.092 0 0 1-2.658-1.929 10.234 10.234 0 0 1-1.871-2.588A10.104 10.104 0 0 1 .28 11.458a10.182 10.182 0 0 1 1.378-3.951c.551-.92 1.234-1.73 2.04-2.433A10.133 10.133 0 0 1 6.455 3.36c.996-.418 2.049-.651 3.12-.768 1.037-.113 1.907-.003 2.927.202 1.087.219 2.12.595 3.057 1.189.57.361 1.097.791 1.648 1.185.045.032.145.058.176.033.202-.164.393-.342.587-.516a1.258 1.258 0 0 1-.113-.162c-.143-.253-.084-.502.173-.73.23-.204.467-.231.69-.034.292.259.563.542.839.818.204.204.256.44.154.648-.138.278-.397.423-.684.39-.049-.006-.117-.003-.148.026-.215.198-.422.403-.63.603.05.073.078.121.112.163a10.12 10.12 0 0 1 1.944 3.905zm-9.918 11.313c4.902-.012 8.848-3.951 8.859-8.835.01-4.89-3.957-8.864-8.829-8.867a8.836 8.836 0 0 0-8.869 8.824c-.023 4.877 3.968 8.875 8.839 8.878z"/></g><g opacity=".87"><path fill="#b1a7ce" d="M11 1.235a.768.768 0 0 1-.768.768H8.768A.768.768 0 0 1 8 1.235V.77c0-.424.344-.767.768-.767h1.464c.424 0 .768.343.768.767z"/></g><g opacity=".87"><path fill="#b1a7ce" d="M10.926 2.065c.014-.042.035-.082.035-.126V.469c0-.31-.344-.561-.768-.561h-.235c-.424 0-.767.25-.767.562v1.469c0 .044.02.084.035.126z"/></g></g><g opacity=".87"><path fill="#b1a7ce" d="M9.921 14.047a.52.52 0 0 0 .256.157.567.567 0 0 0 .525.28.431.431 0 0 0 .233-.096l4.485-3.671c.211-.173.227-.515.037-.764-.185-.24-.525-.304-.728-.138l-4.093 3.35-4.599-5.09a.553.553 0 0 0-.783-.03.588.588 0 0 0-.025.811z"/></g></g></g></svg>