<svg xmlns="http://www.w3.org/2000/svg" width="31" height="25" viewBox="0 0 31 25"><g><g opacity=".87"><g opacity=".87"><path fill="#b1a7ce" d="M16.106 10.22l.107.08.58-.98-.044-.062c-.98-1.395-1.086-1.982-.544-2.99.094-.174.206-.342.314-.506l.116-.177c1.28-1.99 1.138-3.735-.45-5.495l-.101-.113-.701 1.03.303.436c.84 1.218.85 2.01.045 3.262l-.074.114c-.19.293-.386.596-.544.924-.782 1.619-.373 3.46.993 4.478z"/></g><g opacity=".87"><path fill="#b1a7ce" d="M20.18 10.214l.091.041.591-.705-.069-.064c-1.119-1.03-1.143-1.454-.146-2.52l.041-.044a5.13 5.13 0 0 0 .123-.134c.557-.627.8-1.305.704-1.962-.097-.667-.539-1.28-1.278-1.777l-.078-.052-.789.603.403.437c.802.857.807 1.357.021 2.228l-.079.087c-.228.252-.465.513-.639.802-.329.544-.397 1.158-.193 1.73.206.574.667 1.046 1.297 1.33z"/></g><g opacity=".87"><path fill="#b1a7ce" d="M12.106 10.212l.093.04.564-.72-.068-.062c-.955-.854-1.082-1.28-.595-1.982.103-.147.234-.286.362-.42l.1-.107c1.292-1.394 1.157-2.713-.404-3.92l-.081-.064-.797.645.076.077c1.212 1.23 1.226 1.57.12 2.811-.286.321-.47.578-.595.835-.53 1.084.009 2.344 1.225 2.867z"/></g><g opacity=".87"><path fill="#b1a7ce" d="M30.229 13.589c.432.007.759.33.759.753a.744.744 0 0 1-.757.755c-.68.007-1.36.005-2.038 0h-.001c-.11 0-.12.003-.143.096-1.217 4.64-4.182 7.648-8.811 8.939-1.37.38-2.716.574-4.003.574-3.483 0-6.626-1.397-9.34-4.148-1.418-1.438-2.382-3.223-2.865-5.3-.037-.158-.07-.183-.19-.183-.534.014-1.023-.01-1.525-.01l-.407-.04a.815.815 0 0 1-.838-.823c-.003-.452.33-.903.83-.906.235-.001.47-.293.705-.293H3v-.245c0-.528.022-1.755.556-1.755H27.45c.05 0 .269.46.32.464.425.025.884.786.893 1.209.005.23.337.46.337.7v.21l.795-.001c.257 0 .178 0 .434.004zm-25.95-.586c.002 0-.126.375-.118.449.245 2.199 1 4.365 2.503 5.996C8.846 21.817 12 23.175 15 23.175v-.002c2 0 3.26-.34 4.662-.907 3.494-1.413 5.984-3.961 6.886-7.462.089-.348.14-.814.195-1.188.019-.13.037-.613.058-.613z"/></g></g></g></svg>