<svg xmlns="http://www.w3.org/2000/svg" width="30" height="16" viewBox="0 0 30 16"><g><g opacity=".87"><g opacity=".87"><path fill="#b1a7ce" d="M29.434 8.207l-.257.37c-3.246 4.684-8.661 7.48-14.484 7.48S3.456 13.262.21 8.578l-.257-.37.257-.37C3.456 3.153 8.87.356 14.693.356s11.238 2.797 14.484 7.48zm-21.527 0a7.08 7.08 0 0 1 3.755-6.273c-4.064.75-7.714 3.003-10.123 6.273 2.409 3.27 6.059 5.523 10.123 6.274a7.08 7.08 0 0 1-3.755-6.274zm12.962 0a5.84 5.84 0 0 0-5.832-5.833 5.84 5.84 0 0 0-5.833 5.833 5.84 5.84 0 0 0 5.833 5.833 5.839 5.839 0 0 0 5.832-5.833zm1.297 0c0 2.453-1.291 4.738-3.35 6.033 3.65-.927 6.832-3.046 9.03-6.033-2.198-2.986-5.38-5.105-9.03-6.033 2.059 1.295 3.35 3.58 3.35 6.033z"/></g><g opacity=".87"><path fill="#b1a7ce" d="M15.215 5.18a2.838 2.838 0 0 0-2.835 2.836 2.838 2.838 0 0 0 2.835 2.835c.773 0 1.496-.307 2.036-.864l.1-.103-.12-.08c-.405-.271-.637-.684-.637-1.13 0-.664.505-1.231 1.228-1.378l.13-.028-.04-.127a2.827 2.827 0 0 0-2.697-1.96z"/></g></g></g></svg>