<svg xmlns="http://www.w3.org/2000/svg" width="16" height="31" viewBox="0 0 16 31"><g><g><path fill="#8b80a0" d="M15.1 5.536c-1.599.423-3.452.335-4.238 1.28-.794.959-.533 2.94-.76 4.68h4.868l-.622 5.296h-4.055v13.01c-1.545 0-2.917-.014-4.289.007-.913.014-.758-.686-.759-1.27-.007-3.318-.004-6.638-.004-9.957v-1.72H1.37v-5.316h3.873c0-1.221-.012-2.28.002-3.338.062-4.821 2.222-7.144 6.633-7.144 3.307 0 3.308 0 3.266 3.57-.005.367-.035.732-.043.902z"/></g><g><path fill="none" stroke="#8b80a0" stroke-miterlimit="50" stroke-width=".5" d="M15.1 5.536c-1.599.423-3.452.335-4.238 1.28-.794.959-.533 2.94-.76 4.68h4.868l-.622 5.296h-4.055v13.01c-1.545 0-2.917-.014-4.289.007-.913.014-.758-.686-.759-1.27-.007-3.318-.004-6.638-.004-9.957v-1.72 0H1.37v0-5.316 0h3.873c0-1.221-.012-2.28.002-3.338.062-4.821 2.222-7.144 6.633-7.144 3.307 0 3.308 0 3.266 3.57-.005.367-.035.732-.043.902z"/></g></g></svg>