<svg xmlns="http://www.w3.org/2000/svg" width="25" height="21" viewBox="0 0 25 21"><g><g opacity=".87"><g opacity=".87"><path fill="#b1a7ce" d="M10.68 20.162c-.476-.371-.955-.74-1.433-1.107-1.74-1.336-3.537-2.717-5.2-4.24C2.72 13.604 1.284 12.07.674 9.893c-.591-2.112-.34-4.255.71-6.038C2.38 2.163 4.007.974 5.962.506c2.422-.578 4.647.07 6.516 1.888C14.444.483 16.793-.14 19.312.589c2.623.76 4.378 2.59 5.073 5.296.159.617.22 1.235.19 1.888.03 2.114-.848 4.155-2.608 6.005-1.424 1.496-3.041 2.763-4.605 3.987l-.672.528c-.794.625-1.588 1.25-2.393 1.857-.59.444-1.206.668-1.832.668-.623 0-1.224-.22-1.784-.657zM6.436 2.485c-1.413.338-2.584 1.19-3.297 2.403-.766 1.3-.945 2.884-.505 4.456.47 1.679 1.617 2.9 2.787 3.97 1.599 1.464 3.362 2.818 5.066 4.127.482.37.965.742 1.445 1.115.41.32.704.3 1.14-.03.795-.598 1.577-1.214 2.359-1.83l.678-.532c1.575-1.234 3.063-2.4 4.385-3.788 1.4-1.472 2.07-2.99 2.048-4.637a4.378 4.378 0 0 0-.127-1.348c-.52-2.025-1.72-3.284-3.668-3.848-1.92-.556-3.575-.052-5.091 1.555-.187.197-.575.608-1.176.608-.606 0-1-.42-1.167-.597-1.12-1.194-2.316-1.774-3.66-1.774-.39 0-.8.05-1.217.15z"/></g></g></g></svg>