<svg xmlns="http://www.w3.org/2000/svg" width="29" height="31" viewBox="0 0 29 31"><g><g><path fill="#8b80a0" d="M8.04 30.18c-3.638-.298-6.435-3.118-6.602-7.06a175.787 175.787 0 0 1-.033-14.284c.167-4.268 2.908-7.194 6.84-7.365a146.59 146.59 0 0 1 12.89.008c3.867.173 6.647 3.328 6.797 7.656.156 4.471.17 8.96-.005 13.43-.176 4.498-2.974 7.341-7.16 7.638-2.037.145-4.08.207-6.122.304-2.203-.106-4.409-.15-6.605-.328zM25.41 15.89c0-1.453.007-2.906-.005-4.359a42.789 42.789 0 0 0-.08-2.089c-.178-3.063-1.85-5.04-4.682-5.127a199.92 199.92 0 0 0-12.07.004c-2.67.08-4.389 1.74-4.51 4.66-.192 4.57-.188 9.164.001 13.735.12 2.855 1.76 4.494 4.391 4.59 4.073.148 8.158.165 12.23.01 2.944-.114 4.541-2.09 4.64-5.324.06-2.032.01-4.067.01-6.1h.074z"/></g><g><path fill="none" stroke="#8b80a0" stroke-miterlimit="50" stroke-width=".5" d="M8.04 30.18c-3.638-.298-6.435-3.118-6.602-7.06a175.787 175.787 0 0 1-.033-14.284c.167-4.268 2.908-7.194 6.84-7.365a146.59 146.59 0 0 1 12.89.008c3.867.173 6.647 3.328 6.797 7.656.156 4.471.17 8.96-.005 13.43-.176 4.498-2.974 7.341-7.16 7.638-2.037.145-4.08.207-6.122.304-2.203-.106-4.409-.15-6.605-.328zM25.41 15.89c0-1.453.007-2.906-.005-4.359a42.789 42.789 0 0 0-.08-2.089c-.178-3.063-1.85-5.04-4.682-5.127a199.92 199.92 0 0 0-12.07.004c-2.67.08-4.389 1.74-4.51 4.66-.192 4.57-.188 9.164.001 13.735.12 2.855 1.76 4.494 4.391 4.59 4.073.148 8.158.165 12.23.01 2.944-.114 4.541-2.09 4.64-5.324.06-2.032.01-4.067.01-6.1h.074z"/></g><g><path fill="#8b80a0" d="M21.537 15.842c-.001 4.276-2.966 7.483-6.92 7.482-3.88 0-6.951-3.308-6.971-7.51-.02-4.14 3.099-7.47 6.993-7.467 3.956.004 6.9 3.202 6.898 7.495zm-2.605.057c.028-2.602-1.83-4.667-4.235-4.71-2.382-.04-4.347 2-4.394 4.562-.047 2.579 1.839 4.654 4.258 4.683 2.45.03 4.344-1.935 4.37-4.535z"/></g><g><path fill="none" stroke="#8b80a0" stroke-miterlimit="50" stroke-width=".5" d="M21.537 15.842c-.001 4.276-2.966 7.483-6.92 7.482-3.88 0-6.951-3.308-6.971-7.51-.02-4.14 3.099-7.47 6.993-7.467 3.956.004 6.9 3.202 6.898 7.495zm-2.605.057c.028-2.602-1.83-4.667-4.235-4.71-2.382-.04-4.347 2-4.394 4.562-.047 2.579 1.839 4.654 4.258 4.683 2.45.03 4.344-1.935 4.37-4.535z"/></g><g><path fill="#8b80a0" d="M21.45 10.145c-.64-.254-1.2-1.294-1.308-1.899-.201-1.109.436-1.892 1.574-1.914 1.117-.02 1.829.691 1.676 1.82-.096.711-.748 1.711-1.383 1.991a.699.699 0 0 1-.558.002z"/></g><g><path fill="none" stroke="#8b80a0" stroke-miterlimit="50" stroke-width=".5" d="M21.45 10.145c-.64-.254-1.2-1.294-1.308-1.899-.201-1.109.436-1.892 1.574-1.914 1.117-.02 1.829.691 1.676 1.82-.096.711-.748 1.711-1.383 1.991a.699.699 0 0 1-.558.002z"/></g></g></svg>