<?xml version="1.0" encoding="utf-8"?>
<!-- Generator: Adobe Illustrator 17.1.0, SVG Export Plug-In . SVG Version: 6.00 Build 0)  -->
<!DOCTYPE svg PUBLIC "-//W3C//DTD SVG 1.1//EN" "http://www.w3.org/Graphics/SVG/1.1/DTD/svg11.dtd">
<svg version="1.1" id="Layer_1" xmlns="http://www.w3.org/2000/svg" xmlns:xlink="http://www.w3.org/1999/xlink" x="0px" y="0px"
	 viewBox="0 0 170.1 226.8" enable-background="new 0 0 170.1 226.8" xml:space="preserve">
<g>
	<path fill="#B1A7CE" d="M74.6,70.9c-0.7,0-1.4-0.3-2-0.7c-0.5-0.4-1.1-0.8-1.6-1.3c-2-1.5-4-3.1-5.9-4.8c-1.5-1.4-3.1-3.1-3.8-5.6
		c-0.7-2.4-0.4-4.8,0.8-6.9c1.1-1.9,3-3.3,5.2-3.8c2.8-0.7,5.3,0.1,7.4,2.1c2.2-2.2,4.9-2.9,7.8-2.1c3,0.9,5,2.9,5.8,6
		c0.2,0.7,0.3,1.4,0.2,2.1c0,2.4-1,4.7-3,6.8c-1.6,1.7-3.5,3.1-5.2,4.5l-0.8,0.6c-0.9,0.7-1.8,1.4-2.7,2.1
		C76.1,70.7,75.4,70.9,74.6,70.9z M69.2,49.9c-0.4,0-0.9,0.1-1.4,0.2c-1.6,0.4-2.9,1.4-3.8,2.7c-0.9,1.5-1.1,3.3-0.6,5.1
		c0.5,1.9,1.8,3.3,3.2,4.5c1.8,1.7,3.8,3.2,5.8,4.7c0.5,0.4,1.1,0.8,1.6,1.3c0.5,0.4,0.8,0.3,1.3,0c0.9-0.7,1.8-1.4,2.7-2.1l0.8-0.6
		c1.8-1.4,3.5-2.7,5-4.3c1.6-1.7,2.4-3.4,2.3-5.3c0-0.6,0-1.1-0.1-1.5c-0.6-2.3-2-3.7-4.2-4.4c-2.2-0.6-4.1-0.1-5.8,1.8
		c-0.2,0.2-0.7,0.7-1.3,0.7c-0.7,0-1.1-0.5-1.3-0.7C72.1,50.6,70.7,49.9,69.2,49.9z"/>
</g>
</svg>
