<?xml version="1.0" encoding="utf-8"?>
<!-- Generator: Adobe Illustrator 17.1.0, SVG Export Plug-In . SVG Version: 6.00 Build 0)  -->
<!DOCTYPE svg PUBLIC "-//W3C//DTD SVG 1.1//EN" "http://www.w3.org/Graphics/SVG/1.1/DTD/svg11.dtd">
<svg version="1.1" id="Layer_1" xmlns="http://www.w3.org/2000/svg" xmlns:xlink="http://www.w3.org/1999/xlink" x="0px" y="0px"
	 viewBox="0 0 170.1 226.8" enable-background="new 0 0 170.1 226.8" xml:space="preserve">
<g>
	<path fill="#B1A7CE" d="M74.6,70.9c-0.7,0-1.4-0.3-2-0.7c-0.5-0.4-1.1-0.8-1.6-1.3c-2-1.5-4-3.1-5.9-4.8c-1.5-1.4-3.1-3.1-3.8-5.6
		c-0.7-2.4-0.4-4.8,0.8-6.9c1.1-1.9,3-3.3,5.2-3.8c2.8-0.7,5.3,0.1,7.4,2.1c2.2-2.2,4.9-2.9,7.8-2.1c3,0.9,5,2.9,5.8,6
		c0.2,0.7,0.3,1.4,0.2,2.1c0,2.4-1,4.7-3,6.8c-1.6,1.7-3.5,3.1-5.2,4.5l-0.8,0.6c-0.9,0.7-1.8,1.4-2.7,2.1
		C76.1,70.7,75.4,70.9,74.6,70.9z"/>
</g>
</svg>
