<?xml version="1.0" encoding="utf-8"?>
<!-- Generator: Adobe Illustrator 17.1.0, SVG Export Plug-In . SVG Version: 6.00 Build 0)  -->
<!DOCTYPE svg PUBLIC "-//W3C//DTD SVG 1.1//EN" "http://www.w3.org/Graphics/SVG/1.1/DTD/svg11.dtd">
<svg version="1.1" id="Layer_1" xmlns="http://www.w3.org/2000/svg" xmlns:xlink="http://www.w3.org/1999/xlink" x="0px" y="0px"
	 viewBox="0 0 170.1 226.8" enable-background="new 0 0 170.1 226.8" xml:space="preserve">
<g>
	<path fill="#B1A7CE" d="M79.7,81.5c-1.9-0.8-3.8-1.3-5.7-1.7c2.9-1.7,4.8-4.7,4.8-8.2c-0.1-5.2-4.3-9.3-9.5-9.3
		c-5.1,0-9.3,4.2-9.2,9.4c0,3.5,2,6.5,4.8,8.1c-1.5,0.3-3.2,0.7-4.7,1.2c-3.8,1.4-5.9,4.2-7.5,8.2c0,0.5,0,1,0,1.5
		c1.6,2.1,2.5,2.8,4.7,2.8c8.1-0.1,16.2-0.1,24.3,0c3,0,4.9-2.1,4-5.2C84.7,85.1,82.7,82.8,79.7,81.5z M62.4,71.7
		c0-3.9,3.1-7.1,7-7.1c3.9,0,7,3.1,7.1,7c0,3.8-3.2,7.1-7.1,7.1C65.6,78.8,62.4,75.6,62.4,71.7z M82,91.2c-4.1,0-8.2,0-12.3,0
		c-4.2,0-8.4,0-12.6,0c-1.2,0-1.7-0.6-1.5-1.8c0.6-3.1,2.6-5,5.4-6.1c5.3-2.1,10.7-2,16.1-0.4c3.1,0.9,5.5,2.9,6.4,6.2
		C83.9,90.6,83.4,91.2,82,91.2z"/>
	<path fill="#B1A7CE" d="M101.2,88.7c-0.7-2.7-2.3-4.7-4.7-5.8c-0.9-0.4-1.9-0.8-2.9-1.1c1.6-1.4,2.4-3.4,2.4-5.4
		c-0.1-4.1-3.3-7.3-7.4-7.3c-4,0-7.3,3.3-7.2,7.4c0,4,3.3,7.3,7.3,7.3c0.4,0,0.9,0,1.3-0.1c1.5,0.1,3,0.4,4.4,0.9
		c2.5,0.8,4.1,2.5,4.7,4.9c0.1,0.4,0.1,0.7-0.1,0.9c-0.3,0.3-0.8,0.4-1.2,0.4c-1.3,0-2.7,0-4.1,0l-5.4,0v0.3v1.9v0.3h0.3
		c3.6,0,6.5,0,9,0.1l0.1,0c1.3,0,2.4-0.5,3.1-1.4C101.3,91,101.5,89.9,101.2,88.7z M88.6,71.1l0,0.3c2.8,0,5.1,2.3,5.1,5
		c0,1.3-0.5,2.6-1.5,3.6c-1,1-2.3,1.5-3.6,1.5c-2.7,0-5-2.3-5-5.1c0-1.4,0.5-2.7,1.5-3.6c1-1,2.2-1.5,3.6-1.5V71.1L88.6,71.1z"/>
</g>
</svg>
