<svg xmlns="http://www.w3.org/2000/svg" width="26" height="29" viewBox="0 0 26 29"><g><g><path fill="#8b80a0" d="M1.309 6.182c.004-1.333.488-2.417 1.413-3.273a5.025 5.025 0 0 1 2.304-1.24c.575-.134 1.132-.04 1.562.386A18.777 18.777 0 0 1 8.222 3.89c.797 1.03 1.494 2.142 2.02 3.367.49 1.136.318 1.926-.581 2.71-.18.157-.373.298-.56.448-.79.643-1.064 1.45-.774 2.475.402 1.422 1.142 2.642 2.053 3.74 1.13 1.362 2.504 2.362 4.047 3.094 1.07.508 1.784.28 2.46-.75.159-.239.33-.47.525-.676.659-.697 1.44-.875 2.314-.577.2.068.404.148.583.264a28.348 28.348 0 0 1 4.19 3.325c.708.677.83 1.565.462 2.481-.798 1.975-2.165 3.252-4.126 3.723-.602.145-1.187-.08-1.732-.333C10.99 23.407 5.098 17.24 1.749 8.337a7.738 7.738 0 0 1-.33-1.152c-.068-.327-.076-.668-.11-1.003z"/></g><g><path fill="none" stroke="#8b80a0" stroke-miterlimit="50" stroke-width=".5" d="M1.309 6.182c.004-1.333.488-2.417 1.413-3.273a5.025 5.025 0 0 1 2.304-1.24c.575-.134 1.132-.04 1.562.386A18.777 18.777 0 0 1 8.222 3.89c.797 1.03 1.494 2.142 2.02 3.367.49 1.136.318 1.926-.581 2.71-.18.157-.373.298-.56.448-.79.643-1.064 1.45-.774 2.475.402 1.422 1.142 2.642 2.053 3.74 1.13 1.362 2.504 2.362 4.047 3.094 1.07.508 1.784.28 2.46-.75.159-.239.33-.47.525-.676.659-.697 1.44-.875 2.314-.577.2.068.404.148.583.264a28.348 28.348 0 0 1 4.19 3.325c.708.677.83 1.565.462 2.481-.798 1.975-2.165 3.252-4.126 3.723-.602.145-1.187-.08-1.732-.333C10.99 23.407 5.098 17.24 1.749 8.337a7.738 7.738 0 0 1-.33-1.152c-.068-.327-.076-.668-.11-1.003z"/></g><g><path fill="#8b80a0" d="M14.178 1.287c2.856.09 5.277 1.286 7.31 3.416 1.774 1.859 2.92 4.103 3.312 6.753.123.834.12 1.692.138 2.54.01.48-.24.736-.634.75-.385.014-.61-.202-.676-.668-.162-1.115-.257-2.247-.493-3.343-.413-1.921-1.193-3.655-2.54-5.038-1.277-1.313-2.828-2.071-4.515-2.517-.798-.211-1.618-.331-2.431-.47-.48-.081-.694-.275-.677-.695.02-.486.266-.724.752-.728h.454z"/></g><g><path fill="none" stroke="#8b80a0" stroke-miterlimit="50" stroke-width=".5" d="M14.178 1.287c2.856.09 5.277 1.286 7.31 3.416 1.774 1.859 2.92 4.103 3.312 6.753.123.834.12 1.692.138 2.54.01.48-.24.736-.634.75-.385.014-.61-.202-.676-.668-.162-1.115-.257-2.247-.493-3.343-.413-1.921-1.193-3.655-2.54-5.038-1.277-1.313-2.828-2.071-4.515-2.517-.798-.211-1.618-.331-2.431-.47-.48-.081-.694-.275-.677-.695.02-.486.266-.724.752-.728h.454z"/></g><g><path fill="#8b80a0" d="M21.988 12.357c0 .185.015.37-.003.553-.04.41-.233.595-.614.61-.383.016-.575-.143-.647-.568-.126-.736-.204-1.485-.367-2.212-.295-1.321-.83-2.505-1.874-3.343-.876-.702-1.89-1.061-2.932-1.34-.331-.09-.671-.142-1.007-.206-.514-.097-.707-.343-.665-.856.035-.425.3-.687.72-.66 3.91.26 6.669 3.152 7.287 6.463.095.508.105 1.035.154 1.553l-.052.005z"/></g><g><path fill="none" stroke="#8b80a0" stroke-miterlimit="50" stroke-width=".5" d="M21.988 12.357c0 .185.015.37-.003.553-.04.41-.233.595-.614.61-.383.016-.575-.143-.647-.568-.126-.736-.204-1.485-.367-2.212-.295-1.321-.83-2.505-1.874-3.343-.876-.702-1.89-1.061-2.932-1.34-.331-.09-.671-.142-1.007-.206-.514-.097-.707-.343-.665-.856.035-.425.3-.687.72-.66 3.91.26 6.669 3.152 7.287 6.463.095.508.105 1.035.154 1.553l-.052.005z"/></g><g><path fill="#8b80a0" d="M15.663 7.508c.802.036 1.434.351 1.992.845.837.742 1.441 1.644 1.563 2.843.028.276.008.567-.04.841-.053.305-.252.487-.549.52-.298.031-.524-.1-.627-.395-.087-.25-.123-.523-.172-.788-.252-1.353-1-2.142-2.256-2.373-.119-.02-.24-.038-.355-.075-.263-.086-.489-.214-.493-.569-.005-.37.183-.678.497-.768.164-.048.335-.063.44-.08z"/></g><g><path fill="none" stroke="#8b80a0" stroke-miterlimit="50" stroke-width=".5" d="M15.663 7.508c.802.036 1.434.351 1.992.845.837.742 1.441 1.644 1.563 2.843.028.276.008.567-.04.841-.053.305-.252.487-.549.52-.298.031-.524-.1-.627-.395-.087-.25-.123-.523-.172-.788-.252-1.353-1-2.142-2.256-2.373-.119-.02-.24-.038-.355-.075-.263-.086-.489-.214-.493-.569-.005-.37.183-.678.497-.768.164-.048.335-.063.44-.08z"/></g></g></svg>