<?xml version="1.0" encoding="utf-8"?>
<!-- Generator: Adobe Illustrator 17.1.0, SVG Export Plug-In . SVG Version: 6.00 Build 0)  -->
<!DOCTYPE svg PUBLIC "-//W3C//DTD SVG 1.1//EN" "http://www.w3.org/Graphics/SVG/1.1/DTD/svg11.dtd">
<svg version="1.1" id="Layer_1" xmlns="http://www.w3.org/2000/svg" xmlns:xlink="http://www.w3.org/1999/xlink" x="0px" y="0px"
	 viewBox="0 0 170.1 226.8" enable-background="new 0 0 170.1 226.8" xml:space="preserve">
<g>
	<path fill="#B1A7CE" d="M94.5,58.2c-4.4-6.3-11.7-10.1-19.6-10.1c-7.9,0-15.2,3.8-19.6,10.1L55,58.7l0.3,0.5
		c4.4,6.3,11.7,10.1,19.6,10.1c7.9,0,15.2-3.8,19.6-10.1l0.3-0.5L94.5,58.2z M83.3,58.7c0,4.3-3.5,7.9-7.9,7.9s-7.9-3.5-7.9-7.9
		s3.5-7.9,7.9-7.9S83.3,54.4,83.3,58.7z"/>
	<path fill="#B1A7CE" d="M75.7,54.6c-2.1,0-3.8,1.7-3.8,3.8s1.7,3.8,3.8,3.8c1,0,2-0.4,2.7-1.2l0.1-0.1l-0.2-0.1
		c-0.5-0.4-0.9-0.9-0.9-1.5c0-0.9,0.7-1.7,1.7-1.9l0.2,0l-0.1-0.2C78.8,55.7,77.3,54.6,75.7,54.6z"/>
</g>
</svg>
