<svg version="1.1" id="Layer_1" xmlns="http://www.w3.org/2000/svg" xmlns:xlink="http://www.w3.org/1999/xlink" x="0px" y="0px"
	 viewBox="0 0 170.1 226.8" enable-background="new 0 0 170.1 226.8" xml:space="preserve">
<g>
	<path fill="#B1A7CE" d="M95.1,62.8C90.5,56.3,83,52.4,74.9,52.4c-8.1,0-15.7,3.9-20.2,10.4l-0.4,0.5l0.4,0.5
		c4.5,6.5,12.1,10.4,20.2,10.4c8.1,0,15.7-3.9,20.2-10.4l0.4-0.5L95.1,62.8z M65.4,63.3c0,3.7,2,7,5.2,8.8c-5.7-1-10.8-4.2-14.1-8.8
		c3.4-4.6,8.5-7.7,14.1-8.8C67.4,56.3,65.4,59.6,65.4,63.3z M83.5,63.3c0,4.5-3.7,8.1-8.1,8.1s-8.1-3.7-8.1-8.1s3.7-8.1,8.1-8.1
		S83.5,58.8,83.5,63.3z M85.3,63.3c0-3.4-1.8-6.6-4.7-8.4c5.1,1.3,9.5,4.3,12.6,8.4c-3.1,4.2-7.5,7.1-12.6,8.4
		C83.5,69.9,85.3,66.7,85.3,63.3z"/>
	<path fill="#B1A7CE" d="M75.6,59.1c-2.2,0-4,1.8-4,4c0,2.2,1.8,4,4,4c1.1,0,2.1-0.4,2.8-1.2l0.1-0.1l-0.2-0.1
		c-0.6-0.4-0.9-1-0.9-1.6c0-0.9,0.7-1.7,1.7-1.9l0.2,0l-0.1-0.2C78.8,60.2,77.3,59.1,75.6,59.1z"/>
</g>
</svg>
